<?xml version="1.0" encoding="utf-8"?>
<!-- Generator: Adobe Illustrator 19.2.0, SVG Export Plug-In . SVG Version: 6.00 Build 0)  -->
<svg version="1.1" id="Layer_1" xmlns="http://www.w3.org/2000/svg" xmlns:xlink="http://www.w3.org/1999/xlink" x="0px" y="0px"
	 viewBox="0 0 124 23" style="enable-background:new 0 0 124 23;" xml:space="preserve">
<style type="text/css">
	.st0{fill:#B5103A;}
</style>
<title>5ADFBDDC-ADAF-4C75-B7DE-EC7F637C7062</title>
<path class="st0" d="M51,6.2h2.2v12.6h-1.6V8.2l-4.2,10.6h-0.6L42.6,8.2v10.6H41V6.2h2.2l3.9,9.7L51,6.2L51,6.2z M55.9,14.2
	c0-2.6,1.9-4.8,4.5-4.8c2.7,0,4.4,2.1,4.4,4.9v0.4h-7.3c0.1,1.7,1.3,3.1,3.2,3.1c1.1,0,2.1-0.4,2.8-1.2l0.7,0.9
	C63.3,18.5,62,19,60.6,19C57.9,19,55.9,17.1,55.9,14.2z M60.4,10.6c-1.9,0-2.9,1.6-3,3h6C63.4,12.3,62.5,10.6,60.4,10.6L60.4,10.6z
	 M73.8,18.8v-1.4c-0.7,0.9-1.8,1.6-3.1,1.6c-2.4,0-4-1.8-4-4.8c0-2.9,1.7-4.8,4-4.8c1.2,0,2.3,0.6,3.1,1.6V6.2h1.4v12.6H73.8
	L73.8,18.8z M73.8,16.3v-4.1c-0.5-0.8-1.6-1.5-2.7-1.5c-1.8,0-2.9,1.5-2.9,3.5s1.1,3.5,2.9,3.5C72.2,17.7,73.3,17.1,73.8,16.3
	L73.8,16.3z M77.9,12.5c0-3.9,2.8-6.5,6.4-6.5c2.2,0,3.8,1.1,4.8,2.5l-1.3,0.7c-0.7-1.1-2-1.8-3.5-1.8c-2.7,0-4.8,2.1-4.8,5.1
	c0,3,2.1,5.1,4.8,5.1c1.4,0,2.7-0.7,3.5-1.8l1.3,0.7c-1.1,1.5-2.6,2.5-4.8,2.5C80.7,19,77.9,16.4,77.9,12.5z M91.2,18.8V9.7h1.4v9.1
	H91.2z M91,7.4c0-0.5,0.4-1,1-1s0.9,0.4,0.9,1c0,0.5-0.4,0.9-0.9,0.9c0,0,0,0,0,0C91.4,8.4,91,8,91,7.4C91,7.4,91,7.4,91,7.4z
	 M95.6,18.8V9.7H97v1.4c0.7-0.9,1.8-1.7,3-1.7v1.4c-0.2,0-0.3,0-0.5,0c-0.9,0-2.1,0.7-2.5,1.4v6.4C97,18.8,95.6,18.8,95.6,18.8z
	 M101.3,14.2c0-2.7,1.8-4.8,4.5-4.8c1.7,0,2.6,0.7,3.3,1.6l-0.9,0.8c-0.6-0.8-1.4-1.2-2.3-1.2c-1.9,0-3.1,1.5-3.1,3.5
	c0,2,1.2,3.5,3.1,3.5c0.9,0,1.7-0.4,2.3-1.2l0.9,0.9c-0.7,0.9-1.7,1.6-3.3,1.6C103.1,19,101.3,16.9,101.3,14.2z M111.3,18.8V6.2h1.4
	v12.6L111.3,18.8L111.3,18.8z M115.2,14.2c0-2.6,1.9-4.8,4.5-4.8c2.7,0,4.4,2.1,4.4,4.9v0.4h-7.3c0.1,1.7,1.3,3.1,3.2,3.1
	c1.1,0,2.1-0.4,2.8-1.2l0.7,0.9c-0.9,0.9-2.1,1.4-3.6,1.4C117.1,19,115.2,17.1,115.2,14.2L115.2,14.2z M119.6,10.6
	c-1.9,0-2.9,1.6-3,3h6C122.6,12.3,121.7,10.6,119.6,10.6z M16.9,18.6l-3.8-5.4v5.7h-2.2V9.5h2.3l3.7,5.2
	C16.9,14.8,16.9,18.6,16.9,18.6z M12.1,5.5c0.8,0,1.5,0.7,1.5,1.5c0,0.8-0.7,1.5-1.5,1.5c-0.8,0-1.5-0.7-1.5-1.5S11.3,5.5,12.1,5.5z
	 M21.9,5.5c0.8,0,1.5,0.7,1.5,1.5c0,0.8-0.7,1.5-1.5,1.5c-0.8,0-1.5-0.7-1.5-1.5S21,5.5,21.9,5.5L21.9,5.5z M28,1.8
	c2.1,0.8,3.7,2,4.4,3.8c1.9,4.9-3.8,11.6-12.6,15C10.9,24,2.2,22.8,0.4,17.9c-0.5-1.4-0.4-3,0.2-4.6c-0.1,0.9,0,1.8,0.3,2.6
	c1.7,4.5,9.7,5.6,17.9,2.4c0.8-0.3,1.5-0.6,2.2-1v-4.2l-3.8,5.4v-3.8l3.7-5.2h2.3v6.7c5.5-3.4,8.7-8.1,7.3-11.7
	C29.9,3.4,29.1,2.5,28,1.8L28,1.8z M5.3,18.2c-1.8-0.6-3.1-1.7-3.7-3.2C0,10.8,4.8,5.1,12.4,2.2c7.5-2.9,14.9-1.9,16.5,2.2
	c0.5,1.2,0.4,2.6-0.2,3.9c0.1-0.8,0-1.5-0.2-2.2C27,2.3,20.2,1.4,13.2,4.1c-6.9,2.7-11.4,8-9.9,11.8C3.7,16.8,4.4,17.6,5.3,18.2z"/>
</svg>
